<?xml version="1.0" encoding="UTF-8" standalone="no"?>
<!-- Created with Inkscape (http://www.inkscape.org/) -->

<svg
   version="1.1"
   id="svg99"
   width="4000"
   height="5333.3335"
   viewBox="0 0 4000 5333.3335"
   sodipodi:docname="logoDerootty.svg"
   inkscape:version="1.2.2 (b0a8486541, 2022-12-01)"
   xmlns:inkscape="http://www.inkscape.org/namespaces/inkscape"
   xmlns:sodipodi="http://sodipodi.sourceforge.net/DTD/sodipodi-0.dtd"
   xmlns="http://www.w3.org/2000/svg"
   xmlns:svg="http://www.w3.org/2000/svg">
  <defs
     id="defs103" />
  <sodipodi:namedview
     id="namedview101"
     pagecolor="#ffffff"
     bordercolor="#000000"
     borderopacity="0.25"
     inkscape:showpageshadow="2"
     inkscape:pageopacity="0.0"
     inkscape:pagecheckerboard="0"
     inkscape:deskcolor="#d1d1d1"
     showgrid="false"
     inkscape:zoom="0.150375"
     inkscape:cx="2267.6642"
     inkscape:cy="2114.7133"
     inkscape:window-width="1920"
     inkscape:window-height="1011"
     inkscape:window-x="0"
     inkscape:window-y="0"
     inkscape:window-maximized="1"
     inkscape:current-layer="g105" />
  <g
     inkscape:groupmode="layer"
     inkscape:label="Image"
     id="g105">
    <path
       style="fill:none;stroke:#ffff00;stroke-width:30.9;stroke-dasharray:none"
       d="M 3132.0301,1051.7879 3006.9359,787.87409 c 0,0 152.7463,-99.39344 263.7806,46.64771 45.6768,229.6765 -138.6864,217.2661 -138.6864,217.2661 z"
       id="path294"
       sodipodi:nodetypes="cccc" />
    <path
       style="fill:none;stroke:#ffff00;stroke-width:30.9;stroke-dasharray:none"
       d="m 3340.3244,729.89079 c 73.2738,10.17314 104.485,94.04224 66.8739,149.74608"
       id="path1069"
       sodipodi:nodetypes="cc" />
    <path
       style="fill:none;stroke:#ffff00;stroke-width:30.9;stroke-dasharray:none"
       d="m 3360.7162,629.08486 c 132.3547,32.98719 175.8332,153.34386 159.8445,279.94793"
       id="path1071"
       sodipodi:nodetypes="cc" />
    <path
       style="fill:none;stroke:#ffff00;stroke-width:30.9;stroke-dasharray:none"
       d="m 3373.5324,504.42255 c 151.2657,33.99704 288.306,299.52789 239.3431,420.26771"
       id="path1073"
       sodipodi:nodetypes="cc" />
    <path
       style="fill:none;stroke:#ffff00;stroke-width:30.9;stroke-dasharray:none"
       d="m 3075.0956,929.2719 -918.5016,326.0688 -247.079,481.7553 487.5156,-222.3427 -507.9848,262.0974 -398.3631,707.7037 657.8496,-1225.6951 -704.6861,316.495"
       id="path1075"
       sodipodi:nodetypes="cccccccc" />
    <path
       style="fill:none;stroke:#ffff00;stroke-width:30.9;stroke-dasharray:none"
       d="m 1464.7352,1566.4583 c -347.567,212.5437 -748.95555,835.8114 -363.1546,1087.2543 381.3719,324.8272 1228.8033,-156.1311 1034.9239,-972.5525 0,0 473.023,474.4004 115.869,1050.0317 -449.0726,483.6866 -887.3621,535.3285 -1175.2432,441.9861 C 396.29334,2893.6813 543.66186,2458.4976 580.97743,2243.1115 737.64306,1818.3401 1464.7352,1566.4583 1464.7352,1566.4583 Z"
       id="path1913"
       sodipodi:nodetypes="ccccccc" />
    <path
       style="fill:none;stroke:#ffff00;stroke-width:30.9;stroke-dasharray:none"
       d="m 637.40391,2820.3321 337.8403,-280.7045"
       id="path1915" />
    <path
       style="fill:none;stroke:#ffff00;stroke-width:30.9;stroke-dasharray:none"
       d="m 1276.8944,3210.014 119.4325,-470.1578"
       id="path1917"
       sodipodi:nodetypes="cc" />
    <path
       style="fill:none;stroke:#ffff00;stroke-width:30.9;stroke-dasharray:none"
       d="M 2140.0796,2838.5937 1866.9732,2558.7075"
       id="path1919" />
  </g>
</svg>
